<?xml version="1.0" encoding="UTF-8" standalone="no"?>
<!-- Created with Inkscape (http://www.inkscape.org/) -->
<svg xmlns:dc="http://purl.org/dc/elements/1.1/" xmlns:cc="http://web.resource.org/cc/" xmlns:rdf="http://www.w3.org/1999/02/22-rdf-syntax-ns#" xmlns:svg="http://www.w3.org/2000/svg" xmlns="http://www.w3.org/2000/svg" xmlns:xlink="http://www.w3.org/1999/xlink" xmlns:sodipodi="http://inkscape.sourceforge.net/DTD/sodipodi-0.dtd" xmlns:inkscape="http://www.inkscape.org/namespaces/inkscape" sodipodi:docname="musical_note.svg" sodipodi:docbase="/home/nicu/Desktop" inkscape:version="0.41pre2" sodipodi:version="0.32" id="svg2" height="80.000000pt" width="80.000000pt">
  <defs id="defs3">
    <linearGradient id="linearGradient8157">
      <stop id="stop8159" offset="0.0000000" style="stop-color: rgb(0, 0, 0); stop-opacity: 1;"/>
      <stop id="stop8161" offset="1.0000000" style="stop-color: rgb(96, 96, 96); stop-opacity: 1;"/>
    </linearGradient>
    <linearGradient id="linearGradient3579" inkscape:collect="always">
      <stop id="stop3581" offset="0" style="stop-color: rgb(255, 255, 255); stop-opacity: 1;"/>
      <stop id="stop3583" offset="1" style="stop-color: rgb(255, 255, 255); stop-opacity: 0;"/>
    </linearGradient>
    <linearGradient y2="13.944632" x2="18.903805" y1="81.055840" x1="80.239250" gradientTransform="scale(0.88267, 1.13293)" gradientUnits="userSpaceOnUse" id="linearGradient10460" xlink:href="#linearGradient8157" inkscape:collect="always"/>
    <linearGradient y2="111.33920" x2="15.223759" y1="52.713890" x1="-19.039936" gradientTransform="matrix(1.26909, -0.13167, 0.0808815, 0.779571, 3.52366e-17, -5.35596e-17)" gradientUnits="userSpaceOnUse" id="linearGradient10462" xlink:href="#linearGradient3579" inkscape:collect="always"/>
    <linearGradient y2="37.163910" x2="97.343185" y1="-6.6212053" x1="71.088333" gradientTransform="matrix(0.60451, -0.0627187, 0.1698, 1.63662, 0, 0)" gradientUnits="userSpaceOnUse" id="linearGradient10464" xlink:href="#linearGradient3579" inkscape:collect="always"/>
    <linearGradient y2="20.792826" x2="156.67999" y1="4.4250841" x1="95.224609" gradientTransform="scale(0.583097, 1.71498)" gradientUnits="userSpaceOnUse" id="linearGradient10466" xlink:href="#linearGradient3579" inkscape:collect="always"/>
  </defs>
  <sodipodi:namedview inkscape:window-y="25" inkscape:window-x="0" inkscape:window-height="793" inkscape:window-width="1152" inkscape:current-layer="layer1" inkscape:document-units="px" inkscape:cy="45.914368" inkscape:cx="50.000000" inkscape:zoom="1.0000000" inkscape:pageshadow="2" inkscape:pageopacity="0.0" borderopacity="1.0" bordercolor="#666666" pagecolor="#ffffff" id="base"/>
  <metadata id="metadata4">
    <rdf:RDF id="RDF5">
      <cc:Work id="Work6" rdf:about="">
        <dc:format id="format7">image/svg+xml</dc:format>
        <dc:type rdf:resource="http://purl.org/dc/dcmitype/StillImage" id="type9"/>
      </cc:Work>
    </rdf:RDF>
  </metadata>
  <g id="layer1" inkscape:groupmode="layer" inkscape:label="Layer 1">
    <g transform="matrix(0.969271, 0, 0, 0.969271, 0.386994, 2.0647)" id="g10453">
      <path id="path9681" d="M 69.000000,2.3125000 C 64.818046,9.0354121 63.837632,17.888110 60.846437,25.398373 C 56.866375,37.984332 52.886312,50.570291 48.906250,63.156250 C 37.906654,50.659421 14.276585,58.407662 12.906446,75.114782 C 9.9696307,90.804562 28.317212,105.00207 42.812500,97.812500 C 56.486903,90.624520 56.861100,73.186414 61.794879,60.315804 C 65.363253,48.491786 68.931626,36.667768 72.500000,24.843750 C 76.159103,34.410661 81.361443,47.872458 71.683314,55.640247 C 65.645234,58.489746 67.397967,69.674371 74.906250,67.375000 C 88.046615,61.916344 92.919197,43.969073 86.961304,31.514799 C 82.542379,22.221655 76.949778,13.347625 71.740915,4.4320634 C 70.978304,3.7491674 70.475192,1.4019212 69.000000,2.3125000 z " style="fill: rgb(0, 0, 0); fill-opacity: 1; stroke: none; stroke-width: 1.25; stroke-linecap: round; stroke-linejoin: round; stroke-miterlimit: 4; stroke-opacity: 1;"/>
      <path sodipodi:nodetypes="cccccccccccccccccc" id="path1291" d="M 69.658170,4.1010011 L 67.340851,11.441835 L 49.794969,67.017994 C 45.860887,61.473174 39.221110,58.092783 31.981320,58.843919 C 21.290982,59.953052 13.516429,69.526816 14.625634,80.217842 C 15.734838,90.908865 25.309219,98.682662 35.999557,97.573528 C 44.428230,96.699045 50.959500,90.523322 52.838415,82.725282 L 72.209318,18.670635 C 73.900100,21.632201 75.888741,28.515219 77.254417,32.499965 C 78.883694,37.253837 79.783359,42.295942 79.107648,46.728433 C 78.431938,51.160925 76.440635,55.062209 71.560942,58.476204 C 70.258639,59.236545 69.497554,60.662981 69.587670,62.168302 C 69.677782,63.673625 70.601677,64.995867 71.985389,65.595412 C 73.369100,66.194956 74.974497,65.971559 76.134407,65.007858 C 82.654666,60.446071 86.038829,54.223268 86.994807,47.952286 C 87.950784,41.681304 87.369037,35.385905 84.781691,30.887206 C 79.721848,22.996745 76.581231,16.662142 73.875164,12.147822 C 72.627633,9.4491420 71.063835,6.7832748 69.658170,4.1010011 z " style="fill: url(#linearGradient10460) rgb(0, 0, 0); fill-opacity: 1; stroke: none; stroke-width: 1.25; stroke-linecap: round; stroke-linejoin: round; stroke-miterlimit: 4; stroke-opacity: 1;"/>
      <path sodipodi:nodetypes="cccc" id="path2057" d="M 28.342805,60.415292 C 21.045761,62.770871 17.100078,68.146017 15.873992,74.643336 C 22.520884,103.10443 30.283543,63.263107 49.265582,68.455977 C 49.634465,66.465740 40.303454,56.886550 28.342805,60.415292 z " style="fill: url(#linearGradient10462) rgb(0, 0, 0); fill-opacity: 1; stroke: none; stroke-width: 1.25; stroke-linecap: round; stroke-linejoin: round; stroke-miterlimit: 4; stroke-opacity: 1;"/>
      <path sodipodi:nodetypes="cccc" id="path3587" d="M 50.705627,66.934152 C 55.507174,64.661613 65.409810,16.593917 71.681064,16.580795 C 69.841104,16.151322 69.509790,13.340655 69.394962,6.7896180 C 69.066935,7.8415256 50.921241,67.156500 50.705627,66.934152 z " style="fill: url(#linearGradient10464) rgb(0, 0, 0); fill-opacity: 1; stroke: none; stroke-width: 1.25; stroke-linecap: round; stroke-linejoin: round; stroke-miterlimit: 4; stroke-opacity: 1;"/>
      <path sodipodi:nodetypes="ccc" id="path5873" d="M 71.542131,16.852147 C 71.542131,16.852147 93.958665,50.715421 78.060414,52.782194 C 81.717011,48.489666 81.875994,36.248013 71.542131,16.852147 z " style="fill: url(#linearGradient10466) rgb(0, 0, 0); fill-opacity: 1; fill-rule: evenodd; stroke: none; stroke-width: 1pt; stroke-linecap: butt; stroke-linejoin: miter; stroke-opacity: 1;"/>
    </g>
  </g>
</svg>