<?xml version="1.0" encoding="UTF-8" standalone="no"?>
<!-- Created with Inkscape (http://www.inkscape.org/) -->
<svg xmlns:dc="http://purl.org/dc/elements/1.1/" xmlns:cc="http://web.resource.org/cc/" xmlns:rdf="http://www.w3.org/1999/02/22-rdf-syntax-ns#" xmlns:svg="http://www.w3.org/2000/svg" xmlns="http://www.w3.org/2000/svg" xmlns:xlink="http://www.w3.org/1999/xlink" xmlns:sodipodi="http://sodipodi.sourceforge.net/DTD/sodipodi-0.dtd" xmlns:inkscape="http://www.inkscape.org/namespaces/inkscape" version="1.0" width="343pt" height="340pt" id="svg7235" sodipodi:version="0.32" inkscape:version="0.44.1" sodipodi:docname="Piestukas galutinis  su permatomumu ink 3.svg" sodipodi:docbase="C:\Documents and Settings\Jurgis\My Documents\My Pictures\Ikonos\Naujos glass ikonso">
  <metadata id="metadata1917">
    <rdf:RDF>
      <cc:Work rdf:about="">
        <dc:format>image/svg+xml</dc:format>
        <dc:type rdf:resource="http://purl.org/dc/dcmitype/StillImage"/>
      </cc:Work>
    </rdf:RDF>
  </metadata>
  <sodipodi:namedview inkscape:window-height="573" inkscape:window-width="853" inkscape:pageshadow="2" inkscape:pageopacity="0.0" guidetolerance="10.0" gridtolerance="10.0" objecttolerance="10.0" borderopacity="1.0" bordercolor="#666666" pagecolor="#ffffff" id="base" inkscape:zoom="2.5089812" inkscape:cx="255.11283" inkscape:cy="245.98066" inkscape:window-x="155" inkscape:window-y="133" inkscape:current-layer="g1917" showguides="true" inkscape:guide-bbox="true">
    <sodipodi:guide orientation="vertical" position="-227.71883" id="guide1921"/>
  </sodipodi:namedview>
  <defs id="defs7237">
    <linearGradient id="linearGradient40420">
      <stop style="stop-color: rgb(236, 236, 236); stop-opacity: 1;" offset="0" id="stop40422"/>
      <stop style="stop-color: rgb(236, 236, 236); stop-opacity: 0;" offset="1" id="stop40424"/>
    </linearGradient>
    <linearGradient id="linearGradient37757">
      <stop style="stop-color: rgb(236, 236, 236); stop-opacity: 1;" offset="0" id="stop37759"/>
      <stop style="stop-color: rgb(236, 236, 236); stop-opacity: 0;" offset="1" id="stop37761"/>
    </linearGradient>
    <linearGradient id="linearGradient36864">
      <stop style="stop-color: gray; stop-opacity: 1;" offset="0" id="stop36866"/>
      <stop style="stop-color: gray; stop-opacity: 0;" offset="1" id="stop36868"/>
    </linearGradient>
    <linearGradient id="linearGradient28886">
      <stop style="stop-color: black; stop-opacity: 0.948454;" offset="0" id="stop28888"/>
      <stop style="stop-color: black; stop-opacity: 0;" offset="1" id="stop28890"/>
    </linearGradient>
    <linearGradient id="linearGradient21447">
      <stop style="stop-color: yellow; stop-opacity: 1;" offset="0" id="stop21449"/>
      <stop style="stop-color: yellow; stop-opacity: 0;" offset="1" id="stop21451"/>
    </linearGradient>
    <linearGradient x1="24.569477" y1="313.41434" x2="168.84377" y2="313.41434" id="linearGradient36870" xlink:href="#linearGradient36864" gradientUnits="userSpaceOnUse"/>
    <linearGradient x1="135" y1="148.125" x2="157.5" y2="148.125" id="linearGradient40495" xlink:href="#linearGradient21447" gradientUnits="userSpaceOnUse" gradientTransform="matrix(0.518028, 0, 0, 0.520097, 182.379, -110.974)"/>
    <linearGradient x1="129.23912" y1="230.09203" x2="165.43198" y2="230.09203" id="linearGradient40497" xlink:href="#linearGradient40420" gradientUnits="userSpaceOnUse"/>
    <linearGradient x1="264.18054" y1="-87.62709" x2="288.71115" y2="-87.62709" id="linearGradient40499" xlink:href="#linearGradient37757" gradientUnits="userSpaceOnUse"/>
    <linearGradient inkscape:collect="always" xlink:href="#linearGradient21447" id="linearGradient1947" gradientUnits="userSpaceOnUse" gradientTransform="matrix(0.518028, 0, 0, 0.520097, 182.379, -110.974)" x1="135" y1="148.125" x2="157.5" y2="148.125"/>
    <linearGradient inkscape:collect="always" xlink:href="#linearGradient36864" id="linearGradient1944" gradientUnits="userSpaceOnUse" x1="24.569477" y1="313.41434" x2="168.84377" y2="313.41434"/>
  </defs>
  <g id="g1917" transform="matrix(0.861273, 0, 0, 0.861273, 49.8145, 3.55011)">
    <rect width="273.18594" height="360.67761" rx="304.44623" ry="11.073437" x="-59.067509" y="132.27927" transform="matrix(0.805547, -0.592532, 0.380015, 0.92498, 0, 0)" style="fill: rgb(236, 236, 236); fill-opacity: 1; fill-rule: evenodd; stroke: black; stroke-width: 9.42827; stroke-linecap: butt; stroke-linejoin: round; stroke-miterlimit: 4; stroke-dasharray: none; stroke-opacity: 1;" id="rect25331"/>
    <rect width="209.84918" height="290.33951" rx="233.86195" ry="8.9139338" x="-7.5030551" y="195.45781" transform="matrix(0.777537, -0.628837, 0.350019, 0.936743, 0, 0)" style="fill: rgb(204, 204, 204); fill-opacity: 1; fill-rule: evenodd; stroke: none; stroke-width: 7.68912; stroke-linecap: butt; stroke-linejoin: round; stroke-miterlimit: 4; stroke-dasharray: none; stroke-opacity: 1;" id="rect25342"/>
    <path d="M 24.569478,204.70565 L 73.998389,149.93658 L 168.84376,461.67982 L 139.86528,476.89212 L 24.569478,204.70565 z " style="fill: url(#linearGradient1944) rgb(0, 0, 0); fill-opacity: 1; fill-rule: evenodd; stroke: none; stroke-width: 7.25; stroke-linecap: butt; stroke-linejoin: round; stroke-miterlimit: 4; stroke-opacity: 1;" id="rect34204"/>
    <rect width="266.99564" height="316.8371" rx="297.54752" ry="9.7274542" x="-74.802307" y="129.73915" transform="matrix(0.806068, -0.591823, 0.505029, 0.863103, 0, 0)" style="fill: black; fill-opacity: 1; fill-rule: evenodd; stroke: black; stroke-width: 8.73601; stroke-linecap: butt; stroke-linejoin: round; stroke-miterlimit: 4; stroke-dasharray: none; stroke-opacity: 1;" id="rect9959"/>
    <path d="M 12.633132,161.22027 L 66.959223,118.20932 L 119.37543,78.920572 L 168.44936,44.284604 L 222.24813,9.6995516 L 255.3847,64.087029 L 80.097661,276.14466 L 12.633132,161.22027 z " style="opacity: 0.72082; fill: rgb(153, 153, 153); fill-opacity: 1; fill-rule: evenodd; stroke: none; stroke-width: 14.94; stroke-linecap: butt; stroke-linejoin: round; stroke-miterlimit: 4; stroke-opacity: 1;" id="rect3709"/>
    <path d="M 161.27001,147.79868 C 163.12759,147.53152 162.21609,147.69252 163.70737,149.66531 C 164.04542,152.35968 165.72519,153.71435 166.08279,159.45279 C 166.62003,162.17741 167.2117,164.62942 168.33205,167.15557 C 169.18476,169.96795 169.80944,172.94552 170.49617,175.82715 C 171.03379,177.0832 171.35328,178.42402 171.69192,179.74765 L 169.63153,194.17125 C 169.68731,191.25212 169.58978,190.30207 168.96569,187.68489 C 167.04457,183.9431 166.80149,182.66075 166.6748,179.84471 C 165.69345,173.93208 164.19675,178.66073 164.72479,169.45355 C 163.90468,166.66275 163.54617,164.77561 162.31778,162.66791 C 161.8742,161.74559 161.01841,159.87881 161.27001,160.89117 L 161.27001,147.79868 z " style="fill: white; fill-opacity: 1; fill-rule: evenodd; stroke: black; stroke-width: 0.814583; stroke-linecap: butt; stroke-linejoin: round; stroke-miterlimit: 4; stroke-dasharray: none; stroke-opacity: 1;" id="path13531"/>
    <path d="M 173.70775,135.3775 C 173.44626,133.19969 174.23797,137.3767 174.56194,139.5195 C 174.67079,143.24669 177.76979,147.66122 178.82315,150.14789 C 179.75698,154.1929 180.60098,157.50958 181.52103,163.13477 C 182.87689,164.1969 182.4816,165.80903 182.72982,167.31872 L 180.25795,183.57847 C 180.16772,180.77414 180.1866,177.96148 179.83558,175.1704 C 177.86021,172.64928 176.94705,169.32263 176.79768,166.17445 C 175.55309,162.47679 173.9196,159.6708 172.19314,155.95827 C 171.8798,154.40253 169.57954,152.02061 171.06849,151.32859 L 173.70775,135.3775 z " style="fill: white; fill-opacity: 1; fill-rule: evenodd; stroke: black; stroke-width: 1.02792; stroke-linecap: butt; stroke-linejoin: round; stroke-miterlimit: 4; stroke-dasharray: none; stroke-opacity: 1;" id="path13533"/>
    <path d="M 193.00626,131.03883 C 191.81811,163.59927 193.40493,137.42921 189.04534,148.31943 C 186.64979,148.35411 186.56075,149.90199 183.73472,150.0475 C 182.43027,155.06114 182.06607,153.83091 181.85702,157.32666 C 180.58835,139.51599 183.23623,148.9144 187.43876,152.59501 C 187.99242,153.24628 188.54609,153.89754 189.09976,154.5488 L 188.23548,166.48158 C 187.57436,167.04899 186.91324,167.61641 186.25212,168.18383 C 182.67973,159.06849 177.35533,160.55844 179.9812,144.70519 C 180.76503,141.70297 181.91558,140.14084 182.83938,137.39793 C 184.74479,136.36896 186.62775,135.4929 188.21967,132.75074 C 193.44688,133.20015 191.06012,130.61763 190.55924,146.48874 L 193.00626,131.03883 z " style="fill: white; fill-opacity: 1; fill-rule: evenodd; stroke: black; stroke-width: 0.814583; stroke-linecap: butt; stroke-linejoin: round; stroke-miterlimit: 4; stroke-dasharray: none; stroke-opacity: 1;" id="path13535"/>
    <path d="M 193.57224,116.54739 C 193.81859,119.80758 196.35404,122.15555 196.51254,122.5264 C 197.37406,127.6139 200.10803,131.82303 201.23375,136.96352 C 202.85496,141.69378 205.24306,145.77784 206.33185,150.68819 L 205.21177,160.35125 C 201.67634,156.53406 201.3138,152.64625 199.81499,148.24336 C 198.77003,144.42283 197.08407,140.39947 194.79072,137.63491 C 194.25459,131.38865 194.45718,134.42665 192.3711,131.80927 L 193.57224,116.54739 z " style="fill: white; fill-opacity: 1; fill-rule: evenodd; stroke: black; stroke-width: 0.814583; stroke-linecap: butt; stroke-linejoin: round; stroke-miterlimit: 4; stroke-dasharray: none; stroke-opacity: 1;" id="path13537"/>
    <path d="M 144.87008,80.92326 L 77.893237,178.67325 L 143.96499,127.08298 L 95.995087,195.87001" style="opacity: 0.0615142; fill: none; fill-rule: evenodd; stroke: white; stroke-width: 18.1019; stroke-linecap: butt; stroke-linejoin: miter; stroke-miterlimit: 4; stroke-dasharray: none; stroke-opacity: 1;" id="path16133"/>
    <path id="path9937" style="opacity: 1; fill: rgb(26, 26, 26); fill-opacity: 1; fill-rule: evenodd; stroke: none; stroke-width: 1px; stroke-linecap: butt; stroke-linejoin: miter; stroke-opacity: 1;" d="M 177.86369,225.4481 L 145.11273,249.51344 L 191.83939,255.65117 L 183.19356,246.18138 L 178.86613,235.83908 L 177.86369,225.4481 z "/>
    <rect id="rect9933" style="opacity: 1; fill: rgb(26, 26, 26); fill-opacity: 1; fill-rule: evenodd; stroke: none; stroke-width: 70.264; stroke-linecap: butt; stroke-linejoin: round; stroke-miterlimit: 4; stroke-dasharray: none; stroke-opacity: 1;" transform="matrix(0.337217, 0.941427, -0.970122, 0.242616, 0, 0)" y="-253.66006" x="265.41977" ry="4.2218924" rx="144.36533" height="164.05066" width="33.513363"/>
    <path d="M 96.103352,205.43864 C 98.140446,204.46653 99.106549,204.11257 99.991713,207.541 C 102.47849,204.62728 102.6449,206.01599 105.04368,207.95555 C 107.92284,208.21186 108.11935,208.49259 109.46326,210.33638 C 111.10139,212.82447 113.46905,212.78874 115.27372,213.70103 C 116.84775,218.58245 119.02504,219.37833 120.12307,221.52069 C 121.20716,220.33903 122.98524,226.17141 124.6383,227.80998 C 125.42431,230.39001 126.91807,231.19017 128.64439,232.79058 C 128.6649,232.42276 128.63723,232.05383 128.63365,231.68547 C 128.74058,216.09148 127.63769,246.23227 128.46061,235.37138 C 128.91471,228.22321 128.39355,220.88087 129.11767,214.26811 C 129.00884,211.93039 129.55729,209.60823 129.80031,207.28064 C 130.21729,204.12048 130.15278,200.94597 130.09622,197.76953 C 131.09859,195.5992 130.87221,194.49433 131.42096,191.27918 C 131.10504,186.93283 133.00373,188.89964 134.67855,188.59214 C 135.48119,189.60371 136.58639,190.43218 137.09755,191.61801 C 138.10308,193.26315 139.13463,196.90115 139.324,197.92321 C 139.9979,199.23285 140.86677,200.47025 141.2865,201.88204 C 140.95915,204.72952 142.00723,207.04275 142.58811,209.63197 C 142.77624,210.13324 142.19381,210.62755 141.99665,211.12533 C 141.85717,208.1235 142.19199,205.36226 142.80967,202.59775 C 143.99544,200.89853 144.80573,196.36267 145.63101,193.50544 C 147.16453,192.12815 147.68359,187.60751 148.91523,183.96016 C 149.73078,180.83963 151.17476,177.83382 152.12648,175.29852 C 152.29142,169.96429 153.57344,172.9651 153.43967,166.54448 C 153.51361,166.36766 153.58754,166.19083 153.66148,166.014 L 155.536,178.74272 C 155.48533,179.21498 155.43467,179.68723 155.38401,180.15948 C 154.91437,182.51356 154.10977,184.04279 153.79626,188.26976 C 153.08329,189.96576 150.40767,194.8393 150.85291,198.64719 C 149.86013,200.67106 147.45065,204.8645 147.57601,208.17821 C 146.63576,209.96404 145.05982,213.56459 144.72885,216.6014 C 144.24859,219.17921 143.85547,222.6223 144.04903,225.59372 C 142.87718,224.6605 141.51435,225.7667 140.60099,224.09439 C 140.87799,219.14903 140.25061,220.84983 139.26262,217.49637 C 139.03727,215.52623 138.02671,207.56545 137.49108,212.19561 C 136.92372,208.03519 136.17226,207.53882 135.83132,204.81416 C 135.06866,203.65821 134.55903,204.03028 133.56633,201.27201 C 133.57207,201.7247 133.10807,202.91784 132.96319,202.48892 C 132.97299,206.0992 132.71867,208.43193 132.29711,211.93631 C 132.26405,214.46543 132.06966,217.05646 131.56342,219.47133 C 131.49649,221.88693 131.28838,224.13728 131.01181,226.90895 C 131.38848,236.92608 128.69823,228.07647 130.5896,221.90321 C 130.59469,229.34333 130.52949,236.88771 130.54452,244.27817 C 128.9228,246.3699 129.52771,247.87799 127.49947,244.97778 C 125.88439,243.47735 125.30136,241.67782 123.15663,242.9145 C 122.12522,239.98272 121.02603,236.19242 118.892,234.40233 C 117.8939,232.69 116.18509,230.57647 113.96726,229.21168 C 111.63762,225.11509 110.15809,227.32225 108.57735,222.79508 C 105.29505,221.02672 107.28848,223.90921 104.43648,220.66942 C 102.44695,218.89759 101.19111,220.60915 99.66261,218.59775 C 97.932843,217.05419 98.936002,217.73409 96.103352,218.02152 L 96.103352,205.43864 z " style="fill: white; fill-opacity: 1; fill-rule: evenodd; stroke: black; stroke-width: 0.814583; stroke-linecap: butt; stroke-linejoin: round; stroke-miterlimit: 4; stroke-dasharray: none; stroke-opacity: 1;" id="path13529"/>
    <g transform="matrix(1.36653, 0.481963, -0.481963, 1.36653, 67.1194, -149.04)" id="g40442">
      <rect width="33.671753" height="176.8331" rx="145.04762" ry="4.5508518" x="241.30469" y="-122.02644" transform="matrix(0.737822, 0.674995, -0.650553, 0.759461, 0, 0)" style="fill: rgb(255, 42, 42); fill-opacity: 1; fill-rule: evenodd; stroke: none; stroke-width: 70.264; stroke-linecap: butt; stroke-linejoin: round; stroke-miterlimit: 4; stroke-dasharray: none; stroke-opacity: 1;" id="rect7244"/>
      <rect width="11.655608" height="176.18292" rx="145.04764" ry="0" x="252.31277" y="-122.02641" transform="matrix(0.737822, 0.674995, -0.650553, 0.759461, 0, 0)" style="fill: url(#linearGradient1947) rgb(0, 0, 0); fill-opacity: 1; fill-rule: evenodd; stroke: none; stroke-width: 70.264; stroke-linecap: butt; stroke-linejoin: round; stroke-miterlimit: 4; stroke-dasharray: none; stroke-opacity: 1;" id="rect7246"/>
      <path d="M 144.02221,201.59726 L 130.33156,245.43504 L 170.18963,223.77513 L 158.62928,219.36385 L 150.02952,211.49637 L 144.02221,201.59726 z " style="fill: rgb(153, 153, 153); fill-opacity: 1; fill-rule: evenodd; stroke: none; stroke-width: 1px; stroke-linecap: butt; stroke-linejoin: miter; stroke-opacity: 1;" id="path7252"/>
      <path d="M 149.62117,211.97309 L 159.58482,220.23802 L 132.18431,244.48802 L 149.62117,211.97309 z " style="fill: rgb(179, 179, 179); fill-rule: evenodd; stroke: none; stroke-width: 1px; stroke-linecap: butt; stroke-linejoin: miter; stroke-opacity: 1;" id="path8139"/>
      <path d="M 134.54528,232.55729 L 143.03538,238.56312 L 131.60038,243.95381 L 134.54528,232.55729 z " style="fill: black; fill-rule: evenodd; stroke: black; stroke-width: 0.518923px; stroke-linecap: butt; stroke-linejoin: miter; stroke-opacity: 1;" id="path9919"/>
    </g>
  </g>
</svg>